<svg version="1.0" xmlns="http://www.w3.org/2000/svg"
 width="250.000000pt" height="303.000000pt" viewBox="0 0 250.000000 303.000000"
 preserveAspectRatio="xMidYMid meet">

<g transform="translate(0.000000,303.000000) scale(0.100000,-0.100000)"
fill="#cccccc" stroke="none">
<path d="M755 2942 c-62 -29 -173 -158 -153 -177 3 -3 21 2 41 10 46 19 98 19
144 0 73 -31 107 -83 123 -192 5 -37 17 -117 26 -178 15 -103 20 -117 75 -217
33 -58 67 -109 76 -112 40 -16 43 6 45 334 l3 315 -28 53 c-56 107 -147 170
-256 178 -41 4 -67 0 -96 -14z"/>
<path d="M1473 2941 c-70 -24 -127 -65 -167 -120 -65 -89 -63 -74 -53 -611 l2
-125 26 -3 c31 -4 41 7 111 125 53 88 56 98 73 210 30 210 43 261 78 300 60
68 148 89 237 58 24 -8 45 -13 48 -11 9 10 -41 77 -94 125 -80 73 -157 88
-261 52z"/>
<path d="M1145 2878 c-43 -23 -46 -37 -17 -92 l27 -51 0 -315 c0 -173 4 -321
8 -327 10 -15 26 -16 47 -3 13 8 15 55 15 322 l0 313 29 58 29 57 -23 25 c-26
27 -79 33 -115 13z"/>
<path d="M646 2755 c-47 -16 -120 -85 -147 -138 -26 -50 -33 -214 -9 -208 8 2
45 4 81 4 100 2 157 -31 271 -154 140 -151 210 -186 138 -70 -43 71 -52 103
-81 301 -24 166 -31 188 -72 228 -55 53 -107 63 -181 37z"/>
<path d="M1635 2755 c-47 -16 -92 -66 -105 -115 -5 -19 -16 -82 -25 -140 -30
-201 -41 -240 -90 -310 -85 -121 6 -78 151 73 122 126 224 171 342 149 l52 -9
0 86 c0 77 -3 91 -30 139 -35 60 -105 116 -167 131 -54 14 -79 13 -128 -4z"/>
<path d="M491 2379 c-60 -18 -119 -69 -146 -123 -35 -72 -45 -138 -45 -298 l0
-139 23 6 c60 19 115 69 209 193 62 80 130 116 182 96 25 -10 18 -24 -12 -24
-47 0 -89 -32 -172 -133 -85 -103 -132 -142 -218 -185 -112 -55 -190 -158
-226 -299 -19 -71 -23 -236 -8 -273 5 -14 32 -55 59 -91 27 -37 62 -95 77
-129 15 -34 31 -58 35 -53 5 4 16 39 26 76 10 40 32 88 52 115 104 144 185
293 203 372 23 107 24 109 28 48 2 -44 -4 -73 -28 -136 -32 -83 -109 -220
-160 -284 -37 -46 -61 -107 -100 -250 -44 -164 -38 -254 26 -379 46 -91 169
-161 295 -167 l76 -4 0 89 c0 57 9 129 26 203 14 63 29 152 33 198 9 111 28
104 32 -11 2 -66 -4 -113 -25 -204 -44 -191 -36 -281 34 -391 58 -92 81 -97
418 -91 22 0 94 0 160 -1 212 -1 273 27 336 155 40 82 42 167 5 315 -30 121
-42 222 -32 274 12 62 30 37 38 -50 4 -43 21 -140 39 -214 22 -97 30 -153 27
-200 l-3 -65 82 1 c71 1 91 5 156 36 101 48 147 92 187 179 48 106 51 168 10
310 -46 164 -67 213 -107 261 -118 140 -213 333 -213 433 0 69 15 65 23 -7 11
-88 115 -281 214 -393 33 -38 50 -70 70 -133 14 -45 29 -84 33 -87 4 -3 17 19
29 49 12 29 47 84 77 122 86 106 89 115 88 224 -1 149 -45 269 -130 360 -31
33 -79 66 -154 105 -85 44 -121 70 -166 118 -148 160 -166 176 -197 182 -56
11 -67 16 -62 26 11 16 70 10 115 -13 28 -15 72 -56 120 -110 41 -48 90 -100
108 -114 36 -29 102 -55 116 -47 11 7 0 265 -15 336 -16 73 -42 119 -91 161
-88 76 -216 85 -332 24 -76 -40 -250 -211 -220 -216 52 -8 65 -15 79 -42 12
-23 13 -39 6 -72 -12 -51 -3 -69 56 -121 24 -22 55 -59 69 -83 25 -43 25 -44
16 -172 -13 -175 -48 -253 -130 -287 -41 -18 -47 -34 -28 -80 9 -21 16 -55 16
-76 l0 -40 -30 16 c-27 14 -31 14 -36 1 -3 -9 4 -32 16 -51 26 -43 21 -52 -19
-35 -44 18 -54 6 -47 -52 4 -27 4 -53 1 -58 -9 -15 -102 26 -177 77 -61 40
-68 49 -68 78 0 27 7 37 41 61 22 15 65 57 95 93 53 64 53 66 32 74 -27 10
-383 5 -393 -5 -11 -10 58 -100 116 -152 68 -61 68 -91 -1 -145 -58 -46 -156
-95 -171 -85 -6 4 -8 24 -5 53 4 25 2 53 -3 61 -9 13 -14 13 -41 -3 -29 -17
-30 -17 -30 0 0 10 9 32 20 48 11 17 20 34 20 39 0 9 -31 4 -63 -9 -16 -7 -17
-3 -11 36 4 24 13 60 21 79 15 38 14 40 -62 94 -50 35 -77 114 -87 258 -10
154 -1 184 82 267 l53 53 -6 55 c-9 82 17 123 75 123 18 0 16 4 -14 42 -58 75
-142 152 -195 181 -58 31 -148 43 -202 26z m857 -1430 c64 -32 67 -36 70 -73
5 -60 -5 -85 -36 -92 -76 -17 -121 -37 -151 -69 -18 -19 -37 -35 -42 -35 -6 0
-22 13 -37 29 -29 31 -70 54 -117 65 -47 12 -55 24 -55 82 0 47 3 55 30 74 96
69 224 76 338 19z"/>
<path d="M890 1901 c-43 -9 -87 -32 -120 -62 l-24 -24 44 -7 c25 -4 58 -18 75
-30 20 -15 46 -23 82 -24 28 -1 57 -5 62 -9 18 -10 12 -114 -13 -228 -22 -101
-21 -143 4 -97 18 34 68 204 74 254 3 25 9 66 12 91 3 28 15 57 32 77 l27 31
-30 -6 c-22 -4 -41 1 -70 19 -41 25 -85 29 -155 15z"/>
<path d="M1345 1889 c-21 -14 -40 -18 -62 -15 -39 6 -41 -1 -9 -31 23 -22 36
-68 36 -129 0 -36 55 -235 77 -277 27 -54 30 -17 6 90 -14 66 -23 132 -21 168
l3 60 60 5 c37 3 74 13 95 27 19 12 53 25 75 29 l39 7 -37 32 c-45 39 -96 55
-173 55 -43 0 -67 -6 -89 -21z"/>
</g>
</svg>
